# xmcd
#
# Track frame offsets:
#	150
#	13736
#	29795
#	43329
#	61086
#	74508
#	88834
#	104660
#	120316
#	136010
#
# Disc length: 1996 seconds
#
# Revision: 1
# Processed by: cddbd v1.5.2PL0 Copyright (c) Steve Scherf et al.
# Submitted via: EZCDAudioConverter 7.0.0.1
#
DISCID=8e07ca0a
DTITLE=Glen Campbell - Rhinestone Cowboy
DYEAR=1975
DGENRE=Country
TTITLE0=Country Boy (You Got Your Feet In L.A.)
TTITLE1=Comeback
TTITLE2=Count On Me\\
TTITLE3=I Miss You Tonight
TTITLE4=My Girl
TTITLE5=Rhinestone Cowboy
TTITLE6=I'd Build A Bridge
TTITLE7=Pencils For Sale
TTITLE8=Marie
TTITLE9=We're Over
EXTD=
EXTT0=
EXTT1=
EXTT2=
EXTT3=
EXTT4=
EXTT5=
EXTT6=
EXTT7=
EXTT8=
EXTT9=
PLAYORDER=
